# Blender v3.5.1 OBJ File: ''
# www.blender.org
o test2
v -128.000000 -128.000000 0.000010
v -128.000000 0.000000 0.000000
v 0.000000 0.000000 0.000000
v 0.000000 -128.000000 0.000010
v -114.058601 44.492191 -0.000003
v -116.164101 44.402340 -0.000003
v -114.718803 44.519531 -0.000003
v -113.406303 44.406250 -0.000003
v -112.757797 44.261719 -0.000003
v -117.527298 44.066410 -0.000003
v -112.113297 44.062500 -0.000003
v -118.796898 43.515629 -0.000003
v -111.472702 43.804691 -0.000003
v -110.832001 43.488281 -0.000003
v -119.964798 42.765629 -0.000003
v -110.191399 43.113281 -0.000003
v -109.546898 42.675781 -0.000003
v -121.027298 41.824219 -0.000003
v -108.906303 42.179691 -0.000003
v -108.257797 41.625000 -0.000003
v -121.968803 40.703129 -0.000003
v -107.601601 41.007809 -0.000003
v -106.941399 40.332031 -0.000003
v -122.792999 39.410160 -0.000003
v -106.941399 32.406250 -0.000002
v -107.601601 33.468750 -0.000003
v -108.250000 34.410160 -0.000003
v -108.890602 35.234379 -0.000003
v -109.527298 35.949219 -0.000003
v -110.152298 36.554691 -0.000003
v -110.769501 37.062500 -0.000003
v -111.382797 37.472660 -0.000003
v -111.992203 37.800781 -0.000003
v -112.593803 38.042969 -0.000003
v -113.191399 38.207031 -0.000003
v -113.789101 38.304691 -0.000003
v -114.382797 38.332031 -0.000003
v -123.480499 37.960941 -0.000003
v -115.171898 38.265629 -0.000003
v -115.921898 38.058590 -0.000003
v -116.628899 37.726559 -0.000003
v -124.031303 36.363281 -0.000003
v -117.285202 37.269531 -0.000003
v -117.882797 36.699219 -0.000003
v -118.421898 36.023441 -0.000003
v -124.433601 34.632809 -0.000003
v -118.890602 35.246090 -0.000003
v -119.285202 34.371090 -0.000003
v -124.683601 32.769531 -0.000002
v -119.605499 33.414059 -0.000003
v -119.839798 32.375000 -0.000002
v -124.765602 30.796881 -0.000002
v -119.984398 31.265631 -0.000002
v -120.031303 30.085939 -0.000002
v -124.703102 29.027340 -0.000002
v -120.015602 29.199221 -0.000002
v -119.968803 28.359381 -0.000002
v -124.515602 27.285160 -0.000002
v -119.886703 27.566410 -0.000002
v -119.773399 26.804689 -0.000002
v -124.199203 25.542971 -0.000002
v -119.628899 26.062500 -0.000002
v -119.453102 25.335939 -0.000002
v -123.742203 23.777340 -0.000002
v -119.242203 24.609381 -0.000002
v -119.003899 23.878910 -0.000002
v -118.726601 23.128910 -0.000002
v -123.144501 21.964840 -0.000002
v -118.421898 22.351561 -0.000002
v -118.085899 21.539061 -0.000002
v -122.398399 20.085939 -0.000002
v -117.714798 20.679689 -0.000002
v -116.968803 19.054689 -0.000001
v -121.500000 18.109381 -0.000001
v -116.144501 17.375000 -0.000001
v -120.445297 16.015631 -0.000001
v -115.253899 15.652340 -0.000001
v -119.222702 13.781250 -0.000001
v -114.304703 13.902340 -0.000001
v -113.316399 12.136720 -0.000001
v -117.832001 11.378910 -0.000001
v -112.296898 10.371090 -0.000001
v -116.269501 8.792969 -0.000001
v -111.261703 8.613281 -0.000001
v -114.527298 5.988281 -0.000000
v -110.222702 6.882813 -0.000001
v -109.187500 5.187500 -0.000000
v -127.132797 5.988281 -0.000000
v -127.132797 0.000000 0.000000
v -108.175797 3.539063 -0.000000
v -107.199203 1.957031 -0.000000
v -106.265602 0.449219 -0.000000
v -106.265602 0.000000 0.000000
v -76.269531 38.269531 -0.000003
v -103.800797 43.937500 -0.000003
v -76.269531 43.937500 -0.000003
v -103.800797 38.269531 -0.000003
v -87.667969 38.269531 -0.000003
v -87.667969 0.000000 0.000000
v -92.402344 38.269531 -0.000003
v -92.402344 0.000000 0.000000
v -63.792969 44.425781 -0.000003
v -65.882812 44.496090 -0.000003
v -65.257812 44.519531 -0.000003
v -66.511719 44.433590 -0.000003
v -67.136719 44.324219 -0.000003
v -62.417969 44.148441 -0.000003
v -67.761719 44.175781 -0.000003
v -68.382812 43.980469 -0.000003
v -61.148441 43.691410 -0.000003
v -69.000000 43.746090 -0.000003
v -69.613281 43.468750 -0.000003
v -59.980469 43.066410 -0.000003
v -70.222656 43.144531 -0.000003
v -70.828133 42.781250 -0.000003
v -58.925781 42.281250 -0.000003
v -71.425781 42.371090 -0.000003
v -72.015633 41.921879 -0.000003
v -57.992191 41.339840 -0.000003
v -72.597656 41.425781 -0.000003
v -67.238281 38.449219 -0.000003
v -67.871094 38.207031 -0.000003
v -68.515633 37.890629 -0.000003
v -69.175781 37.503910 -0.000003
v -69.843750 37.035160 -0.000003
v -70.519531 36.484379 -0.000003
v -71.207031 35.843750 -0.000003
v -71.898438 35.109379 -0.000003
v -72.597656 34.273441 -0.000003
v -57.183590 40.246090 -0.000003
v -66.019531 38.757809 -0.000003
v -66.621094 38.632809 -0.000003
v -56.507809 39.011719 -0.000003
v -64.871094 38.847660 -0.000003
v -65.433594 38.828129 -0.000003
v -55.968750 37.640629 -0.000003
v -64.128906 38.804691 -0.000003
v -63.425781 38.675781 -0.000003
v -62.769531 38.468750 -0.000003
v -62.164059 38.183590 -0.000003
v -61.613281 37.824219 -0.000003
v -61.121090 37.398441 -0.000003
v -55.578129 36.144531 -0.000003
v -60.691410 36.910160 -0.000003
v -60.328129 36.359379 -0.000003
v -60.039059 35.750000 -0.000003
v -55.339840 34.527340 -0.000003
v -59.828129 35.089840 -0.000003
v -59.699219 34.382809 -0.000003
v -55.257809 32.792969 -0.000002
v -59.652340 33.628910 -0.000003
v -59.933590 31.687500 -0.000002
v -55.539059 30.000000 -0.000002
v -60.707031 30.019529 -0.000002
v -61.878910 28.550779 -0.000002
v -56.312500 27.597660 -0.000002
v -63.347660 27.207029 -0.000002
v -57.484379 25.523439 -0.000002
v -65.011719 25.902340 -0.000002
v -66.777344 24.562500 -0.000002
v -58.953129 23.710939 -0.000002
v -68.542969 23.105471 -0.000002
v -60.617191 22.089840 -0.000002
v -70.207031 21.457029 -0.000002
v -62.382809 20.597660 -0.000002
v -71.675781 19.531250 -0.000001
v -64.148438 19.167971 -0.000001
v -72.847656 17.257811 -0.000001
v -65.812500 17.734381 -0.000001
v -67.281250 16.230471 -0.000001
v -73.621094 14.550780 -0.000001
v -68.453133 14.589840 -0.000001
v -69.226562 12.742190 -0.000001
v -73.902344 11.335940 -0.000001
v -69.507812 10.628910 -0.000001
v -55.449219 3.476563 -0.000000
v -56.066410 10.476560 -0.000001
v -55.449219 11.464840 -0.000001
v -73.824219 9.656250 -0.000001
v -69.472656 10.003910 -0.000001
v -56.707031 9.562500 -0.000001
v -69.363281 9.367188 -0.000001
v -73.589844 8.062500 -0.000001
v -57.371090 8.730469 -0.000001
v -69.183594 8.730469 -0.000001
v -58.058590 7.980469 -0.000001
v -68.933594 8.105469 -0.000001
v -68.605469 7.503906 -0.000001
v -73.207031 6.566406 -0.000000
v -58.765629 7.312500 -0.000001
v -68.203133 6.941406 -0.000001
v -59.488281 6.730469 -0.000001
v -67.722656 6.429688 -0.000000
v -60.230469 6.234375 -0.000000
v -72.691406 5.183594 -0.000000
v -67.167969 5.980469 -0.000000
v -60.988281 5.824219 -0.000000
v -66.531250 5.609375 -0.000000
v -61.761719 5.503906 -0.000000
v -65.816406 5.328125 -0.000000
v -62.546879 5.273438 -0.000000
v -65.023438 5.148438 -0.000000
v -63.339840 5.136719 -0.000000
v -72.046883 3.921875 -0.000000
v -64.144531 5.089844 -0.000000
v -71.281250 2.792969 -0.000000
v -56.140629 2.816406 -0.000000
v -56.839840 2.214844 -0.000000
v -70.406250 1.808594 -0.000000
v -57.550781 1.675781 -0.000000
v -69.429688 0.976563 -0.000000
v -58.273441 1.195313 -0.000000
v -59.007809 0.773438 -0.000000
v -68.359383 0.312500 -0.000000
v -59.753910 0.410156 -0.000000
v -60.523441 0.101563 -0.000000
v -67.203133 -0.171875 0.000000
v -61.308590 -0.140625 0.000000
v -62.113281 -0.332031 0.000000
v -65.972656 -0.476563 0.000000
v -62.941410 -0.468750 0.000000
v -63.796879 -0.550781 0.000000
v -64.675781 -0.578125 0.000000
v -32.796879 0.000000 0.000000
v -37.531250 38.269531 -0.000003
v -32.796879 43.937500 -0.000003
v -51.488281 43.937500 -0.000003
v -51.488281 38.269531 -0.000003
v -37.531250 24.996090 -0.000002
v -37.531250 19.328131 -0.000001
v -51.007809 24.996090 -0.000002
v -51.007809 19.328131 -0.000001
v -37.531250 5.667969 -0.000000
v -51.925781 5.667969 -0.000000
v -51.925781 0.000000 0.000000
v -0.820313 38.269531 -0.000003
v -28.351561 43.937500 -0.000003
v -0.820313 43.937500 -0.000003
v -28.351561 38.269531 -0.000003
v -12.218750 38.269531 -0.000003
v -12.218750 0.000000 0.000000
v -16.953131 38.269531 -0.000003
v -16.953131 0.000000 0.000000
vn 0.0000 -0.0000 -1.0000
vn 0.0000 0.0000 1.0000
f 1//1 2//1 3//1
f 1//1 3//1 4//1
f 5//1 6//1 7//1
f 8//1 6//1 5//1
f 9//1 6//1 8//1
f 9//1 10//1 6//1
f 11//1 10//1 9//1
f 11//1 12//1 10//1
f 13//1 12//1 11//1
f 14//1 12//1 13//1
f 14//1 15//1 12//1
f 16//1 15//1 14//1
f 17//1 15//1 16//1
f 17//1 18//1 15//1
f 19//1 18//1 17//1
f 20//1 18//1 19//1
f 20//1 21//1 18//1
f 22//1 21//1 20//1
f 23//1 21//1 22//1
f 23//1 24//1 21//1
f 25//1 26//1 23//1
f 26//1 27//1 23//1
f 27//1 28//1 23//1
f 28//1 29//1 23//1
f 29//1 30//1 23//1
f 30//1 31//1 23//1
f 31//1 32//1 23//1
f 32//1 33//1 23//1
f 33//1 34//1 23//1
f 34//1 35//1 23//1
f 35//1 36//1 23//1
f 36//1 24//1 23//1
f 36//1 37//1 24//1
f 37//1 38//1 24//1
f 39//1 38//1 37//1
f 40//1 38//1 39//1
f 41//1 38//1 40//1
f 41//1 42//1 38//1
f 43//1 42//1 41//1
f 44//1 42//1 43//1
f 45//1 42//1 44//1
f 45//1 46//1 42//1
f 47//1 46//1 45//1
f 48//1 46//1 47//1
f 48//1 49//1 46//1
f 50//1 49//1 48//1
f 51//1 49//1 50//1
f 51//1 52//1 49//1
f 53//1 52//1 51//1
f 54//1 52//1 53//1
f 54//1 55//1 52//1
f 56//1 55//1 54//1
f 57//1 55//1 56//1
f 57//1 58//1 55//1
f 59//1 58//1 57//1
f 60//1 58//1 59//1
f 60//1 61//1 58//1
f 62//1 61//1 60//1
f 63//1 61//1 62//1
f 63//1 64//1 61//1
f 65//1 64//1 63//1
f 66//1 64//1 65//1
f 67//1 64//1 66//1
f 67//1 68//1 64//1
f 69//1 68//1 67//1
f 70//1 68//1 69//1
f 70//1 71//1 68//1
f 72//1 71//1 70//1
f 73//1 71//1 72//1
f 73//1 74//1 71//1
f 75//1 74//1 73//1
f 75//1 76//1 74//1
f 77//1 76//1 75//1
f 77//1 78//1 76//1
f 79//1 78//1 77//1
f 80//1 78//1 79//1
f 80//1 81//1 78//1
f 82//1 81//1 80//1
f 82//1 83//1 81//1
f 84//1 83//1 82//1
f 84//1 85//1 83//1
f 86//1 85//1 84//1
f 87//1 85//1 86//1
f 87//1 88//1 85//1
f 87//1 89//1 88//1
f 90//1 89//1 87//1
f 91//1 89//1 90//1
f 92//1 89//1 91//1
f 93//1 89//1 92//1
f 94//1 95//1 96//1
f 94//1 97//1 95//1
f 98//2 97//2 94//2
f 99//1 100//1 98//1
f 100//2 97//2 98//2
f 99//1 101//1 100//1
f 102//1 103//1 104//1
f 102//1 105//1 103//1
f 102//1 106//1 105//1
f 107//1 106//1 102//1
f 107//1 108//1 106//1
f 107//1 109//1 108//1
f 110//1 109//1 107//1
f 110//1 111//1 109//1
f 110//1 112//1 111//1
f 113//1 112//1 110//1
f 113//1 114//1 112//1
f 113//1 115//1 114//1
f 116//1 115//1 113//1
f 116//1 117//1 115//1
f 116//1 118//1 117//1
f 119//1 118//1 116//1
f 119//1 120//1 118//1
f 119//1 121//1 120//1
f 121//1 122//1 120//1
f 122//1 123//1 120//1
f 123//1 124//1 120//1
f 124//1 125//1 120//1
f 125//1 126//1 120//1
f 126//1 127//1 120//1
f 127//1 128//1 120//1
f 128//1 129//1 120//1
f 130//1 131//1 119//1
f 131//1 132//1 119//1
f 132//1 121//1 119//1
f 133//1 134//1 130//1
f 134//1 135//1 130//1
f 135//1 131//1 130//1
f 136//1 137//1 133//1
f 137//1 134//1 133//1
f 136//1 138//1 137//1
f 136//1 139//1 138//1
f 136//1 140//1 139//1
f 136//1 141//1 140//1
f 136//1 142//1 141//1
f 143//1 142//1 136//1
f 143//1 144//1 142//1
f 143//1 145//1 144//1
f 143//1 146//1 145//1
f 147//1 146//1 143//1
f 147//1 148//1 146//1
f 147//1 149//1 148//1
f 150//1 149//1 147//1
f 150//1 151//1 149//1
f 150//1 152//1 151//1
f 153//1 152//1 150//1
f 153//1 154//1 152//1
f 153//1 155//1 154//1
f 156//1 155//1 153//1
f 156//1 157//1 155//1
f 158//1 157//1 156//1
f 158//1 159//1 157//1
f 158//1 160//1 159//1
f 161//1 160//1 158//1
f 161//1 162//1 160//1
f 163//1 162//1 161//1
f 163//1 164//1 162//1
f 165//1 164//1 163//1
f 165//1 166//1 164//1
f 167//1 166//1 165//1
f 167//1 168//1 166//1
f 169//1 168//1 167//1
f 170//1 168//1 169//1
f 170//1 171//1 168//1
f 172//1 171//1 170//1
f 173//1 171//1 172//1
f 173//1 174//1 171//1
f 175//1 174//1 173//1
f 176//1 177//1 178//1
f 175//1 179//1 174//1
f 180//1 179//1 175//1
f 176//1 181//1 177//1
f 182//1 179//1 180//1
f 182//1 183//1 179//1
f 176//1 184//1 181//1
f 185//1 183//1 182//1
f 176//1 186//1 184//1
f 187//1 183//1 185//1
f 188//1 183//1 187//1
f 188//1 189//1 183//1
f 176//1 190//1 186//1
f 191//1 189//1 188//1
f 176//1 192//1 190//1
f 193//1 189//1 191//1
f 176//1 194//1 192//1
f 193//1 195//1 189//1
f 196//1 195//1 193//1
f 176//1 197//1 194//1
f 198//1 195//1 196//1
f 176//1 199//1 197//1
f 200//1 195//1 198//1
f 176//1 201//1 199//1
f 202//1 195//1 200//1
f 176//1 203//1 201//1
f 202//1 204//1 195//1
f 205//1 204//1 202//1
f 176//1 205//1 203//1
f 176//1 204//1 205//1
f 176//1 206//1 204//1
f 207//1 206//1 176//1
f 208//1 206//1 207//1
f 208//1 209//1 206//1
f 210//1 209//1 208//1
f 210//1 211//1 209//1
f 212//1 211//1 210//1
f 213//1 211//1 212//1
f 213//1 214//1 211//1
f 215//1 214//1 213//1
f 216//1 214//1 215//1
f 216//1 217//1 214//1
f 218//1 217//1 216//1
f 219//1 217//1 218//1
f 219//1 220//1 217//1
f 221//1 220//1 219//1
f 222//1 220//1 221//1
f 222//1 223//1 220//1
f 224//1 225//1 226//1
f 225//1 227//1 226//1
f 225//1 228//1 227//1
f 224//1 229//1 225//1
f 224//1 230//1 229//1
f 230//1 231//1 229//1
f 230//1 232//1 231//1
f 224//1 233//1 230//1
f 224//1 234//1 233//1
f 224//1 235//1 234//1
f 236//1 237//1 238//1
f 236//1 239//1 237//1
f 240//2 239//2 236//2
f 241//1 242//1 240//1
f 242//2 239//2 240//2
f 241//1 243//1 242//1
